<?xml version="1.0" standalone="no"?>
<!DOCTYPE svg PUBLIC "-//W3C//DTD SVG 20010904//EN"
 "http://www.w3.org/TR/2001/REC-SVG-20010904/DTD/svg10.dtd">
<svg version="1.0" xmlns="http://www.w3.org/2000/svg"
 width="239.000000pt" height="239.000000pt" viewBox="0 0 239.000000 239.000000"
 preserveAspectRatio="xMidYMid meet">
<g transform="translate(0.000000,239.000000) scale(0.100000,-0.100000)"
fill="#5999de" stroke="none">
<path d="M454 2381 c-39 -10 -93 -43 -120 -72 -28 -31 -59 -44 -155 -63 -47
-10 -92 -22 -100 -27 -22 -13 -18 -125 6 -174 22 -44 49 -57 156 -74 34 -6 67
-15 74 -21 34 -28 45 -193 24 -362 -8 -71 -8 -102 5 -165 12 -57 16 -150 18
-348 2 -265 1 -273 -30 -439 -36 -193 -42 -205 -118 -213 -54 -6 -89 -31 -98
-69 -5 -19 -13 -24 -39 -24 -18 0 -43 -7 -55 -16 -21 -14 -22 -21 -22 -165 l0
-149 1195 0 1195 0 0 174 0 175 -26 20 c-62 49 -224 109 -380 141 -54 11 -103
25 -110 31 -8 6 -27 52 -43 103 -53 163 -91 259 -152 376 -88 169 -142 237
-356 442 -97 93 -104 103 -181 250 -123 235 -293 533 -336 586 -59 76 -83 85
-211 89 -60 1 -124 -2 -141 -6z m198 -22 c44 -10 50 -13 33 -21 -11 -5 -36
-33 -55 -61 -66 -96 -131 -101 -91 -7 12 29 20 54 17 57 -9 9 -70 -42 -107
-90 -19 -25 -47 -53 -64 -63 -16 -9 -49 -35 -72 -56 -35 -31 -48 -37 -70 -32
-36 8 -137 68 -123 72 5 2 10 14 10 27 0 20 6 23 69 29 37 4 84 16 104 26 28
15 47 18 82 13 29 -4 45 -2 45 5 0 14 -28 42 -43 42 -21 0 37 34 88 52 59 20
105 22 177 7z m222 -1479 c-13 -58 -16 -153 -5 -196 13 -51 65 -139 118 -198
42 -46 34 -56 -47 -56 -77 0 -122 -24 -133 -72 l-9 -38 -124 0 c-68 0 -124 2
-124 4 0 2 24 66 54 143 42 108 122 324 181 491 3 9 18 3 50 -20 38 -28 44
-37 39 -58z m296 51 l55 -18 -40 -7 c-162 -26 -156 -23 -217 -99 -32 -42 -38
-45 -38 -25 1 33 25 96 47 120 43 49 104 58 193 29z"/>
</g>
</svg>
